# xmcd
#
# Track frame offsets: 
#        183
#        14640
#        30718
#        44750
#        62348
#        75988
#        89925
#        102785
#        116600
#        133918
#        147200
#        160488
#        176445
#        190238
#
# Disc length: 2719 seconds
#
# Revision: 3
# Processed by: cddbd v1.5.2PL0 Copyright (c) Steve Scherf et al.
# Submitted via: ExactAudioCopy v1.3
#
DISCID=c30a9d0e
DTITLE=Truck Stop - High Noon!
DYEAR=1992
DGENRE=Country
TTITLE0=Du bist immer auf Achse
TTITLE1=Frankie wollte Cowboy werden
TTITLE2=Wenn du gehst
TTITLE3=Wenn es Nacht wird in Old Tucson
TTITLE4=Hinnerk, der Supertrucker
TTITLE5=Ein kaltes Bier, ein warmes Herz
TTITLE6=Rosalinda
TTITLE7=Mitten aus dem Leben
TTITLE8=Billy The Kid
TTITLE9=Kudd'l von'ne Küste
TTITLE10=Lucky Luke
TTITLE11=Verzeih mir
TTITLE12=Bier vom Faß
TTITLE13=Hardrocker
EXTD=(c)1992 Metronome\nupc 731451351426\nKatalog: 513414-2
EXTT0=
EXTT1=
EXTT2=
EXTT3=
EXTT4=
EXTT5=
EXTT6=
EXTT7=
EXTT8=
EXTT9=
EXTT10=
EXTT11=
EXTT12=
EXTT13=
PLAYORDER=
